# xmcd CD database file
#
# Track frame offsets:
#	150
#	24025
#	40284
#	60921
#	80129
#	95815
#	113640
#	133898
#	153255
#	172420
#	193331
#	212667
#	232735
#	248656
#	264694
#	280370
#	301927
#	323028
#
# Disc length: 4561 seconds
#
# Revision: 1
# Processed by: cddbd v1.4PL0 Copyright (c) Steve Scherf et al.
# Submitted via: NeoAudio 9.9.9
#
DISCID=fb11cf12
DTITLE=R&B Greatest - Januari 2003
DYEAR=2003
DGENRE=R&B
TTITLE0=Lose Yourself
TTITLE1=Don't Mess With My Man
TTITLE2=Paradise
TTITLE3=Girl I Can't Help It
TTITLE4=Girlfriend
TTITLE5=I Want A Girl Like You
TTITLE6=Wasn't Your Fault
TTITLE7=You Had Your Chance
TTITLE8=Do Your Thing
TTITLE9=Mesmerize
TTITLE10=Let Me Show You The Way
TTITLE11=Forever
TTITLE12=Get Ready
TTITLE13=I'm Right Here
TTITLE14=Plano TX USA
TTITLE15=Cry Me A River
TTITLE16=Bump, Bump, Bump
TTITLE17=All I Have
EXTD=YEAR: 2003
EXTT0=
EXTT1=
EXTT2=
EXTT3=
EXTT4=
EXTT5=
EXTT6=
EXTT7=
EXTT8=
EXTT9=
EXTT10=
EXTT11=
EXTT12=
EXTT13=
EXTT14=
EXTT15=
EXTT16=
EXTT17=
PLAYORDER=
